<svg width="54" height="40" viewBox="0 0 54 40" xmlns="http://www.w3.org/2000/svg"><title>CB6D58DF-8C95-4A48-8C84-C8A157A7C292</title><path d="M53.54 4.614a102.095 102.095 0 0 0-6.409 3.553c-1.977 1.196-3.674 2.38-5.09 3.552-1.66 1.416-3.027 2.93-4.102 4.54-1.074 1.612-2.001 3.687-2.783 6.226h3.15c3.076 0 5.285.757 6.628 2.27 1.343 1.515 2.014 3.2 2.014 5.055 0 2.343-.903 4.577-2.71 6.701-1.806 2.124-4.272 3.186-7.397 3.186-3.32 0-5.774-.927-7.361-2.783-1.587-1.855-2.38-4.297-2.38-7.324 0-3.955.854-7.544 2.563-10.767a35.013 35.013 0 0 1 6.445-8.642c2.54-2.442 5.188-4.468 7.947-6.08A226.87 226.87 0 0 1 51.343 0l2.197 4.614zm-27.1 0a102.095 102.095 0 0 0-6.408 3.553c-1.978 1.196-3.675 2.38-5.09 3.552-1.66 1.416-3.028 2.93-4.102 4.54-1.074 1.612-2.002 3.687-2.783 6.226h3.15c3.075 0 5.285.757 6.627 2.27 1.343 1.515 2.015 3.2 2.015 5.055 0 2.343-.904 4.577-2.71 6.701-1.807 2.124-4.273 3.186-7.398 3.186-3.32 0-5.774-.927-7.36-2.783C.792 35.06 0 32.617 0 29.59c0-3.955.854-7.544 2.563-10.767a35.013 35.013 0 0 1 6.446-8.642c2.539-2.442 5.188-4.468 7.947-6.08A226.87 226.87 0 0 1 24.243 0l2.197 4.614z" fill="#3F3F3F" fill-rule="evenodd" opacity=".1"/></svg>